<svg width="16" height="16" viewBox="0 0 16 16" fill="none" xmlns="http://www.w3.org/2000/svg">
    <path d="M14.0833 5.64583L10.5417 2.14583L11.7083 0.979167C12.0278 0.659722 12.4203 0.5 12.8858 0.5C13.3508 0.5 13.7431 0.659722 14.0625 0.979167L15.2292 2.14583C15.5486 2.46528 15.7153 2.85083 15.7292 3.3025C15.7431 3.75361 15.5903 4.13889 15.2708 4.45833L14.0833 5.64583ZM1.33333 15.7083C1.09722 15.7083 0.899445 15.6283 0.74 15.4683C0.58 15.3089 0.5 15.1111 0.5 14.875V12.5208C0.5 12.4097 0.520833 12.3022 0.5625 12.1983C0.604167 12.0939 0.666667 12 0.75 11.9167L9.33333 3.33333L12.875 6.875L4.29167 15.4583C4.20833 15.5417 4.11472 15.6042 4.01083 15.6458C3.90639 15.6875 3.79861 15.7083 3.6875 15.7083H1.33333Z" fill="currentColor" />
</svg>
